<svg width="142" height="31" viewBox="0 0 142 31" fill="none" xmlns="http://www.w3.org/2000/svg">
<path d="M24.6457 18.2151C21.3168 15.626 19.0976 13.1293 18.4041 12.2046L24.1834 11.7423C25.2562 12.8134 28.5756 15.441 29.9626 17.7527C30.8873 19.1397 31.812 26.7683 25.5704 28.1554C20.5771 29.265 17.7877 28.0012 17.0171 27.2307V21.4514H17.7106C17.9418 25.8437 20.2535 26.9995 23.721 26.9995C27.1886 26.9995 28.8067 21.4514 24.6457 18.2151Z" fill="#3A57E8"/>
<path d="M29.9628 2.95799V8.04373C29.7316 6.65671 26.264 2.03331 22.5653 4.345C19.5528 6.22782 21.2989 8.53243 24.1678 11.7423L18.4523 12.2471C16.4005 8.74616 17.4796 4.80735 20.716 3.18916C23.3051 1.89461 27.9593 2.49565 29.9628 2.95799Z" fill="#3A57E8"/>
<path fill-rule="evenodd" clip-rule="evenodd" d="M3.60942 20.7581V4.57624C3.60942 3.95979 2.96215 2.77312 0.373047 2.95805V2.49573H16.5549C16.4779 2.80395 16.3238 3.55911 16.3238 4.11392V7.11912H15.8614C15.8614 6.11739 15.4453 4.11392 13.7809 4.11392H7.77048L7.91937 12.8983H11.4689C12.0164 12.8983 12.856 12.5747 12.856 12.2048H13.0871V15.9035H12.856C12.856 15.7445 12.4456 15.3182 11.4689 15.3182C11.1873 15.3182 10.8144 15.3149 10.4077 15.3112C9.56573 15.3038 8.57931 15.295 7.96027 15.3117L8.00165 17.7529L3.60942 20.7581Z" fill="#193264"/>
<path d="M11.4693 28.3866H0.835449C3.05468 28.3866 3.60949 26.3831 3.60949 25.3814V20.0645L8.00171 16.8281V25.3814C8.00171 27.7856 10.3134 28.3866 11.4693 28.3866Z" fill="#193264"/>
<path d="M48.307 8.6V10.46H42.407V14.56H47.007V16.42H42.407V22.5H40.127V8.6H48.307ZM52.6999 13.08C53.0333 12.52 53.4733 12.0867 54.0199 11.78C54.5799 11.46 55.2399 11.3 55.9999 11.3V13.66H55.4199C54.5266 13.66 53.8466 13.8867 53.3799 14.34C52.9266 14.7933 52.6999 15.58 52.6999 16.7V22.5H50.4199V11.48H52.6999V13.08ZM68.1957 16.72C68.1957 17.1333 68.169 17.5067 68.1157 17.84H59.6957C59.7624 18.72 60.089 19.4267 60.6757 19.96C61.2624 20.4933 61.9824 20.76 62.8357 20.76C64.0624 20.76 64.929 20.2467 65.4357 19.22H67.8957C67.5624 20.2333 66.9557 21.0667 66.0757 21.72C65.209 22.36 64.129 22.68 62.8357 22.68C61.7824 22.68 60.8357 22.4467 59.9957 21.98C59.169 21.5 58.5157 20.8333 58.0357 19.98C57.569 19.1133 57.3357 18.1133 57.3357 16.98C57.3357 15.8467 57.5624 14.8533 58.0157 14C58.4824 13.1333 59.129 12.4667 59.9557 12C60.7957 11.5333 61.7557 11.3 62.8357 11.3C63.8757 11.3 64.8024 11.5267 65.6157 11.98C66.429 12.4333 67.0624 13.0733 67.5157 13.9C67.969 14.7133 68.1957 15.6533 68.1957 16.72ZM65.8157 16C65.8024 15.16 65.5024 14.4867 64.9157 13.98C64.329 13.4733 63.6024 13.22 62.7357 13.22C61.949 13.22 61.2757 13.4733 60.7157 13.98C60.1557 14.4733 59.8224 15.1467 59.7157 16H65.8157ZM74.4395 22.68C73.5728 22.68 72.7928 22.5267 72.0995 22.22C71.4195 21.9 70.8795 21.4733 70.4795 20.94C70.0795 20.3933 69.8661 19.7867 69.8395 19.12H72.1995C72.2395 19.5867 72.4595 19.98 72.8595 20.3C73.2728 20.6067 73.7861 20.76 74.3995 20.76C75.0395 20.76 75.5328 20.64 75.8795 20.4C76.2395 20.1467 76.4195 19.8267 76.4195 19.44C76.4195 19.0267 76.2195 18.72 75.8195 18.52C75.4328 18.32 74.8128 18.1 73.9595 17.86C73.1328 17.6333 72.4595 17.4133 71.9395 17.2C71.4195 16.9867 70.9661 16.66 70.5795 16.22C70.2061 15.78 70.0195 15.2 70.0195 14.48C70.0195 13.8933 70.1928 13.36 70.5395 12.88C70.8861 12.3867 71.3795 12 72.0195 11.72C72.6728 11.44 73.4195 11.3 74.2595 11.3C75.5128 11.3 76.5195 11.62 77.2795 12.26C78.0528 12.8867 78.4661 13.7467 78.5195 14.84H76.2395C76.1995 14.3467 75.9995 13.9533 75.6395 13.66C75.2795 13.3667 74.7928 13.22 74.1795 13.22C73.5795 13.22 73.1195 13.3333 72.7995 13.56C72.4795 13.7867 72.3195 14.0867 72.3195 14.46C72.3195 14.7533 72.4261 15 72.6395 15.2C72.8528 15.4 73.1128 15.56 73.4195 15.68C73.7261 15.7867 74.1795 15.9267 74.7795 16.1C75.5795 16.3133 76.2328 16.5333 76.7395 16.76C77.2595 16.9733 77.7061 17.2933 78.0795 17.72C78.4528 18.1467 78.6461 18.7133 78.6595 19.42C78.6595 20.0467 78.4861 20.6067 78.1395 21.1C77.7928 21.5933 77.2995 21.98 76.6595 22.26C76.0328 22.54 75.2928 22.68 74.4395 22.68ZM86.823 11.3C87.663 11.3 88.4097 11.48 89.063 11.84C89.7297 12.2 90.2497 12.7333 90.623 13.44C91.0097 14.1467 91.203 15 91.203 16V22.5H88.943V16.34C88.943 15.3533 88.6964 14.6 88.203 14.08C87.7097 13.5467 87.0364 13.28 86.183 13.28C85.3297 13.28 84.6497 13.5467 84.143 14.08C83.6497 14.6 83.403 15.3533 83.403 16.34V22.5H81.123V7.7H83.403V12.76C83.7897 12.2933 84.2764 11.9333 84.863 11.68C85.463 11.4267 86.1164 11.3 86.823 11.3Z" fill="black"/>
<path d="M98.6913 22.64C97.758 22.64 96.918 22.48 96.1713 22.16C95.4247 21.8267 94.838 21.36 94.4113 20.76C93.9847 20.16 93.7713 19.46 93.7713 18.66H96.2113C96.2647 19.26 96.498 19.7533 96.9113 20.14C97.338 20.5267 97.9313 20.72 98.6913 20.72C99.478 20.72 100.091 20.5333 100.531 20.16C100.971 19.7733 101.191 19.28 101.191 18.68C101.191 18.2133 101.051 17.8333 100.771 17.54C100.505 17.2467 100.165 17.02 99.7513 16.86C99.3513 16.7 98.7913 16.5267 98.0713 16.34C97.1647 16.1 96.4247 15.86 95.8513 15.62C95.2913 15.3667 94.8113 14.98 94.4113 14.46C94.0113 13.94 93.8113 13.2467 93.8113 12.38C93.8113 11.58 94.0113 10.88 94.4113 10.28C94.8113 9.68 95.3713 9.22 96.0913 8.9C96.8113 8.58 97.6447 8.42 98.5913 8.42C99.938 8.42 101.038 8.76 101.891 9.44C102.758 10.1067 103.238 11.0267 103.331 12.2H100.811C100.771 11.6933 100.531 11.26 100.091 10.9C99.6513 10.54 99.0713 10.36 98.3513 10.36C97.698 10.36 97.1647 10.5267 96.7513 10.86C96.338 11.1933 96.1313 11.6733 96.1313 12.3C96.1313 12.7267 96.258 13.08 96.5113 13.36C96.778 13.6267 97.1113 13.84 97.5113 14C97.9113 14.16 98.458 14.3333 99.1513 14.52C100.071 14.7733 100.818 15.0267 101.391 15.28C101.978 15.5333 102.471 15.9267 102.871 16.46C103.285 16.98 103.491 17.68 103.491 18.56C103.491 19.2667 103.298 19.9333 102.911 20.56C102.538 21.1867 101.985 21.6933 101.251 22.08C100.531 22.4533 99.678 22.64 98.6913 22.64ZM108.842 13.34V19.44C108.842 19.8533 108.935 20.1533 109.122 20.34C109.322 20.5133 109.655 20.6 110.122 20.6H111.522V22.5H109.722C108.695 22.5 107.908 22.26 107.362 21.78C106.815 21.3 106.542 20.52 106.542 19.44V13.34H105.242V11.48H106.542V8.74H108.842V11.48H111.522V13.34H108.842ZM112.863 16.94C112.863 15.8333 113.09 14.8533 113.543 14C114.01 13.1467 114.636 12.4867 115.423 12.02C116.223 11.54 117.103 11.3 118.063 11.3C118.93 11.3 119.683 11.4733 120.323 11.82C120.976 12.1533 121.496 12.5733 121.883 13.08V11.48H124.183V22.5H121.883V20.86C121.496 21.38 120.97 21.8133 120.303 22.16C119.636 22.5067 118.876 22.68 118.023 22.68C117.076 22.68 116.21 22.44 115.423 21.96C114.636 21.4667 114.01 20.7867 113.543 19.92C113.09 19.04 112.863 18.0467 112.863 16.94ZM121.883 16.98C121.883 16.22 121.723 15.56 121.403 15C121.096 14.44 120.69 14.0133 120.183 13.72C119.676 13.4267 119.13 13.28 118.543 13.28C117.956 13.28 117.41 13.4267 116.903 13.72C116.396 14 115.983 14.42 115.663 14.98C115.356 15.5267 115.203 16.18 115.203 16.94C115.203 17.7 115.356 18.3667 115.663 18.94C115.983 19.5133 116.396 19.9533 116.903 20.26C117.423 20.5533 117.97 20.7 118.543 20.7C119.13 20.7 119.676 20.5533 120.183 20.26C120.69 19.9667 121.096 19.54 121.403 18.98C121.723 18.4067 121.883 17.74 121.883 16.98ZM129.458 13.08C129.791 12.52 130.231 12.0867 130.778 11.78C131.338 11.46 131.998 11.3 132.758 11.3V13.66H132.178C131.284 13.66 130.604 13.8867 130.138 14.34C129.684 14.7933 129.458 15.58 129.458 16.7V22.5H127.178V11.48H129.458V13.08ZM137.514 13.34V19.44C137.514 19.8533 137.607 20.1533 137.794 20.34C137.994 20.5133 138.327 20.6 138.794 20.6H140.194V22.5H138.394C137.367 22.5 136.58 22.26 136.034 21.78C135.487 21.3 135.214 20.52 135.214 19.44V13.34H133.914V11.48H135.214V8.74H137.514V11.48H140.194V13.34H137.514Z" fill="#3A57E8"/>
</svg>
